<svg width="1787" height="1049" viewBox="0 0 1787 1049" fill="none" xmlns="http://www.w3.org/2000/svg">
<rect width="1252.5" height="349.616" fill="white"/>
<rect width="902.616" height="349.616" fill="white"/>
<path d="M60.5178 306.808V42.6791H154.303L204.832 223.359H212.105L262.251 42.6791H356.419V306.808H301.679V85.1695H294.406L232.393 306.808H183.012L120.999 82.8727H113.344V306.808H60.5178ZM509.106 310.636C471.337 310.636 441.862 299.152 420.681 276.184C399.754 253.217 389.291 219.403 389.291 174.744C389.291 130.084 399.754 96.2705 420.681 73.3028C441.862 50.3351 471.337 38.8512 509.106 38.8512C542.027 38.8512 568.44 47.2727 588.345 64.1157C608.25 80.9587 620.372 105.33 624.711 137.23H569.205V128.808C569.205 120.897 567.164 113.369 563.081 106.223C559.253 98.8225 552.873 92.8254 543.941 88.2318C535.264 83.3831 523.653 80.9587 509.106 80.9587C487.67 80.9587 471.848 87.0834 461.64 99.3329C451.687 111.582 446.711 130.722 446.711 156.752V192.735C446.711 218.765 451.687 237.905 461.64 250.154C471.848 262.404 487.67 268.529 509.106 268.529C523.653 268.529 535.264 266.104 543.941 261.255C552.873 256.407 559.253 250.154 563.081 242.498C567.164 234.843 569.205 226.804 569.205 218.382V209.195H625.093C621.01 242.116 609.016 267.253 589.111 284.606C569.205 301.959 542.537 310.636 509.106 310.636ZM657.341 306.808V42.6791H774.859C802.931 42.6791 824.112 49.9523 838.403 64.4985C852.949 78.7895 860.223 99.2053 860.223 125.746C860.223 151.265 853.077 171.298 838.786 185.845C824.495 200.136 803.441 207.281 775.625 207.281H711.698V306.808H657.341ZM771.031 166.705C793.233 166.705 804.334 154.966 804.334 131.488V119.621C804.334 96.1429 793.233 84.4039 771.031 84.4039H711.698V166.705H771.031Z" fill="#051413"/>
<rect width="349.887" height="349.616" transform="translate(902.616)" fill="#E2FFC6"/>
<g clip-path="url(#clip0_36_16194)">
<path fill-rule="evenodd" clip-rule="evenodd" d="M1113.88 79.7102C1109.12 75.0794 1102.75 72.4883 1096.11 72.4883C1089.47 72.4883 1083.09 75.0794 1078.33 79.7102L983.537 172.673C981.951 174.215 979.826 175.078 977.614 175.078C975.402 175.078 973.277 174.215 971.691 172.673C970.914 171.918 970.297 171.015 969.875 170.017C969.454 169.019 969.236 167.947 969.236 166.863C969.236 165.78 969.454 164.708 969.875 163.71C970.297 162.712 970.914 161.808 971.691 161.053L1066.49 68.0898C1074.42 60.373 1085.04 56.0552 1096.11 56.0552C1107.17 56.0552 1117.8 60.373 1125.73 68.0898C1130.32 72.5519 1133.78 78.037 1135.85 84.0963C1137.91 90.1556 1138.5 96.6168 1137.59 102.951C1144 102.038 1150.55 102.611 1156.71 104.626C1162.87 106.641 1168.49 110.043 1173.13 114.571L1173.62 115.064C1177.5 118.84 1180.59 123.357 1182.7 128.347C1184.8 133.336 1185.89 138.698 1185.89 144.115C1185.89 149.531 1184.8 154.893 1182.7 159.883C1180.59 164.873 1177.5 169.389 1173.62 173.166L1087.88 257.237C1087.63 257.488 1087.42 257.789 1087.28 258.121C1087.14 258.454 1087.07 258.811 1087.07 259.172C1087.07 259.532 1087.14 259.89 1087.28 260.222C1087.42 260.554 1087.63 260.855 1087.88 261.107L1105.49 278.38C1106.27 279.135 1106.89 280.038 1107.31 281.036C1107.73 282.034 1107.95 283.107 1107.95 284.19C1107.95 285.273 1107.73 286.346 1107.31 287.344C1106.89 288.342 1106.27 289.245 1105.49 290C1103.91 291.542 1101.78 292.405 1099.57 292.405C1097.36 292.405 1095.23 291.542 1093.65 290L1076.04 272.737C1074.22 270.975 1072.78 268.867 1071.8 266.537C1070.81 264.208 1070.31 261.705 1070.31 259.177C1070.31 256.648 1070.81 254.145 1071.8 251.816C1072.78 249.486 1074.22 247.378 1076.04 245.616L1161.77 161.536C1164.1 159.269 1165.95 156.559 1167.22 153.565C1168.48 150.571 1169.13 147.355 1169.13 144.105C1169.13 140.855 1168.48 137.639 1167.22 134.645C1165.95 131.651 1164.1 128.941 1161.77 126.674L1161.28 126.192C1156.53 121.566 1150.16 118.975 1143.53 118.969C1136.89 118.964 1130.52 121.544 1125.76 126.162L1055.13 195.432L1055.11 195.451L1054.15 196.407C1052.56 197.951 1050.43 198.816 1048.22 198.816C1046 198.816 1043.88 197.951 1042.29 196.407C1041.51 195.651 1040.9 194.748 1040.47 193.75C1040.05 192.752 1039.84 191.68 1039.84 190.596C1039.84 189.513 1040.05 188.441 1040.47 187.443C1040.9 186.445 1041.51 185.542 1042.29 184.786L1113.91 114.542C1116.23 112.274 1118.08 109.564 1119.34 106.572C1120.6 103.58 1121.24 100.366 1121.24 97.1198C1121.24 93.8737 1120.59 90.6611 1119.32 87.6711C1118.06 84.6811 1116.21 81.9743 1113.88 79.7102Z" fill="#051413"/>
<path fill-rule="evenodd" clip-rule="evenodd" d="M1102.04 102.948C1102.82 102.192 1103.43 101.289 1103.86 100.291C1104.28 99.293 1104.5 98.2207 1104.5 97.1374C1104.5 96.054 1104.28 94.9817 1103.86 93.9837C1103.43 92.9858 1102.82 92.0825 1102.04 91.3272C1100.45 89.7824 1098.33 88.918 1096.11 88.918C1093.9 88.918 1091.77 89.7824 1090.18 91.3272L1020.08 160.085C1016.19 163.861 1013.11 168.378 1011 173.367C1008.89 178.357 1007.81 183.719 1007.81 189.136C1007.81 194.552 1008.89 199.914 1011 204.904C1013.11 209.894 1016.19 214.41 1020.08 218.187C1028.01 225.901 1038.64 230.217 1049.7 230.217C1060.76 230.217 1071.39 225.901 1079.32 218.187L1149.44 149.429C1150.22 148.674 1150.83 147.771 1151.25 146.773C1151.68 145.775 1151.89 144.702 1151.89 143.619C1151.89 142.536 1151.68 141.463 1151.25 140.465C1150.83 139.467 1150.22 138.564 1149.44 137.809C1147.85 136.264 1145.72 135.4 1143.51 135.4C1141.3 135.4 1139.17 136.264 1137.58 137.809L1067.48 206.566C1062.72 211.197 1056.34 213.788 1049.7 213.788C1043.06 213.788 1036.68 211.197 1031.92 206.566C1029.6 204.3 1027.75 201.589 1026.48 198.596C1025.22 195.602 1024.57 192.385 1024.57 189.136C1024.57 185.886 1025.22 182.669 1026.48 179.675C1027.75 176.682 1029.6 173.972 1031.92 171.705L1102.04 102.948Z" fill="#051413"/>
</g>
<rect width="1786.62" height="349.616" transform="translate(0 349.616)" fill="white"/>
<path d="M167.701 660.252C129.931 660.252 100.456 648.768 79.2748 625.8C58.3486 602.832 47.8855 569.019 47.8855 524.359C47.8855 479.7 58.3486 445.886 79.2748 422.919C100.456 399.951 129.931 388.467 167.701 388.467C200.621 388.467 227.034 396.888 246.939 413.731C266.845 430.574 278.966 454.946 283.305 486.845H227.799V478.424C227.799 470.513 225.758 462.984 221.675 455.839C217.847 448.438 211.467 442.441 202.535 437.848C193.858 432.999 182.247 430.574 167.701 430.574C146.264 430.574 130.442 436.699 120.234 448.949C110.281 461.198 105.305 480.338 105.305 506.368V542.351C105.305 568.381 110.281 587.521 120.234 599.77C130.442 612.02 146.264 618.144 167.701 618.144C182.247 618.144 193.858 615.72 202.535 610.871C211.467 606.022 217.847 599.77 221.675 592.114C225.758 584.458 227.799 576.42 227.799 567.998V558.811H283.688C279.604 591.731 267.61 616.868 247.705 634.222C227.799 651.575 201.131 660.252 167.701 660.252ZM425.797 660.252C387.007 660.252 356.894 648.768 335.458 625.8C314.276 602.832 303.686 569.019 303.686 524.359C303.686 479.7 314.276 445.886 335.458 422.919C356.894 399.951 387.007 388.467 425.797 388.467C464.587 388.467 494.573 399.951 515.754 422.919C537.191 445.886 547.909 479.7 547.909 524.359C547.909 569.019 537.191 602.832 515.754 625.8C494.573 648.768 464.587 660.252 425.797 660.252ZM425.797 618.144C448 618.144 464.332 612.02 474.795 599.77C485.258 587.521 490.49 568.253 490.49 541.968V506.751C490.49 480.465 485.258 461.198 474.795 448.949C464.332 436.699 448 430.574 425.797 430.574C403.34 430.574 386.88 436.699 376.417 448.949C365.954 461.198 360.722 480.465 360.722 506.751V541.968C360.722 568.253 365.954 587.521 376.417 599.77C386.88 612.02 403.34 618.144 425.797 618.144ZM581.09 656.424V392.295H646.931L734.208 549.624H741.481C740.971 537.63 740.588 528.06 740.333 520.914C740.333 513.769 740.333 507.261 740.333 501.392V392.295H793.541V656.424H742.63L640.04 465.792H632.767C633.278 477.786 633.533 487.356 633.533 494.501C633.788 501.647 633.916 508.154 633.916 514.024V656.424H581.09ZM839.133 656.424V392.295H904.974L992.251 549.624H999.524C999.014 537.63 998.631 528.06 998.376 520.914C998.376 513.769 998.376 507.261 998.376 501.392V392.295H1051.58V656.424H1000.67L898.083 465.792H890.81C891.321 477.786 891.576 487.356 891.576 494.501C891.831 501.647 891.959 508.154 891.959 514.024V656.424H839.133ZM1096.79 656.424V392.295H1286.66V435.551H1151.53V501.009H1255.27V542.351H1151.53V613.168H1288.19V656.424H1096.79ZM1419.04 660.252C1381.27 660.252 1351.79 648.768 1330.61 625.8C1309.69 602.832 1299.22 569.019 1299.22 524.359C1299.22 479.7 1309.69 445.886 1330.61 422.919C1351.79 399.951 1381.27 388.467 1419.04 388.467C1451.96 388.467 1478.37 396.888 1498.28 413.731C1518.18 430.574 1530.3 454.946 1534.64 486.845H1479.14V478.424C1479.14 470.513 1477.1 462.984 1473.01 455.839C1469.18 448.438 1462.8 442.441 1453.87 437.848C1445.2 432.999 1433.58 430.574 1419.04 430.574C1397.6 430.574 1381.78 436.699 1371.57 448.949C1361.62 461.198 1356.64 480.338 1356.64 506.368V542.351C1356.64 568.381 1361.62 587.521 1371.57 599.77C1381.78 612.02 1397.6 618.144 1419.04 618.144C1433.58 618.144 1445.2 615.72 1453.87 610.871C1462.8 606.022 1469.18 599.77 1473.01 592.114C1477.1 584.458 1479.14 576.42 1479.14 567.998V558.811H1535.03C1530.94 591.731 1518.95 616.868 1499.04 634.222C1479.14 651.575 1452.47 660.252 1419.04 660.252ZM1613.86 656.424V435.551H1535.39V392.295H1746.69V435.551H1668.22V656.424H1613.86Z" fill="#051413"/>
<rect width="768.616" height="349.616" transform="translate(1018 699.232)" fill="white"/>
<path d="M1078.52 1006.04V741.911H1186.85C1225.64 741.911 1254.86 752.629 1274.51 774.066C1294.16 795.502 1303.98 828.806 1303.98 873.976C1303.98 919.401 1294.16 952.831 1274.51 974.268C1254.86 995.449 1225.64 1006.04 1186.85 1006.04H1078.52ZM1132.87 962.784H1183.02C1204.97 962.784 1221.04 957.297 1231.25 946.324C1241.72 935.35 1246.95 916.849 1246.95 890.819V857.133C1246.95 831.102 1241.72 812.601 1231.25 801.627C1221.04 790.654 1204.97 785.167 1183.02 785.167H1132.87V962.784ZM1304.97 1006.04L1394.16 741.911H1461.15L1550.72 1006.04H1495.6L1430.14 797.416H1422.87L1357.79 1006.04H1304.97ZM1353.2 948.238L1354.35 906.896H1496.75L1497.9 948.238H1353.2ZM1604.4 1006.04V905.365L1512.14 741.911H1569.95L1629.28 852.156H1636.55L1696.27 741.911H1751.77L1659.14 905.365V1006.04H1604.4Z" fill="#051413"/>
<defs>
<clipPath id="clip0_36_16194">
<rect width="236.347" height="236.347" fill="white" transform="translate(959.386 56.6343)"/>
</clipPath>
</defs>
</svg>
